<mxfile host="app.diagrams.net" modified="2021-10-13T20:40:02.435Z" agent="5.0 (Windows NT 10.0; Win64; x64) AppleWebKit/537.36 (KHTML, like Gecko) Chrome/94.0.4606.81 Safari/537.36" etag="VWN_A6HpezJ-xxW5L3Zv" version="15.5.2" type="github">
  <diagram id="C5RBs43oDa-KdzZeNtuy" name="Page-1">
    <mxGraphModel dx="1964" dy="950" grid="1" gridSize="10" guides="1" tooltips="1" connect="1" arrows="1" fold="1" page="0" pageScale="1" pageWidth="827" pageHeight="1169" math="0" shadow="0">
      <root>
        <mxCell id="WIyWlLk6GJQsqaUBKTNV-0" />
        <mxCell id="WIyWlLk6GJQsqaUBKTNV-1" parent="WIyWlLk6GJQsqaUBKTNV-0" />
        <mxCell id="zkfFHV4jXpPFQw0GAbJ--12" value="" style="endArrow=block;endSize=10;endFill=0;shadow=0;strokeWidth=1;rounded=0;edgeStyle=elbowEdgeStyle;elbow=vertical;" parent="WIyWlLk6GJQsqaUBKTNV-1" edge="1">
          <mxGeometry width="160" relative="1" as="geometry">
            <mxPoint x="200" y="360" as="sourcePoint" />
            <mxPoint x="300" y="258" as="targetPoint" />
          </mxGeometry>
        </mxCell>
        <mxCell id="UM03mqGRAgBNg_bXm-dH-0" value="Tamagotchi" style="swimlane;fontStyle=2;align=center;verticalAlign=top;childLayout=stackLayout;horizontal=1;startSize=26;horizontalStack=0;resizeParent=1;resizeLast=0;collapsible=1;marginBottom=0;rounded=0;shadow=0;strokeWidth=1;" parent="WIyWlLk6GJQsqaUBKTNV-1" vertex="1" collapsed="1">
          <mxGeometry x="10" y="120" width="160" height="26" as="geometry">
            <mxRectangle x="10" y="120" width="160" height="138" as="alternateBounds" />
          </mxGeometry>
        </mxCell>
        <mxCell id="UM03mqGRAgBNg_bXm-dH-1" value="Name" style="text;align=left;verticalAlign=top;spacingLeft=4;spacingRight=4;overflow=hidden;rotatable=0;points=[[0,0.5],[1,0.5]];portConstraint=eastwest;" parent="UM03mqGRAgBNg_bXm-dH-0" vertex="1">
          <mxGeometry y="26" width="160" height="26" as="geometry" />
        </mxCell>
        <mxCell id="UM03mqGRAgBNg_bXm-dH-2" value="Phone Number" style="text;align=left;verticalAlign=top;spacingLeft=4;spacingRight=4;overflow=hidden;rotatable=0;points=[[0,0.5],[1,0.5]];portConstraint=eastwest;rounded=0;shadow=0;html=0;" parent="UM03mqGRAgBNg_bXm-dH-0" vertex="1">
          <mxGeometry y="52" width="160" height="26" as="geometry" />
        </mxCell>
        <mxCell id="UM03mqGRAgBNg_bXm-dH-3" value="Email Address" style="text;align=left;verticalAlign=top;spacingLeft=4;spacingRight=4;overflow=hidden;rotatable=0;points=[[0,0.5],[1,0.5]];portConstraint=eastwest;rounded=0;shadow=0;html=0;" parent="UM03mqGRAgBNg_bXm-dH-0" vertex="1">
          <mxGeometry y="78" width="160" height="26" as="geometry" />
        </mxCell>
        <mxCell id="UM03mqGRAgBNg_bXm-dH-4" value="" style="line;html=1;strokeWidth=1;align=left;verticalAlign=middle;spacingTop=-1;spacingLeft=3;spacingRight=3;rotatable=0;labelPosition=right;points=[];portConstraint=eastwest;" parent="UM03mqGRAgBNg_bXm-dH-0" vertex="1">
          <mxGeometry y="104" width="160" height="8" as="geometry" />
        </mxCell>
        <mxCell id="UM03mqGRAgBNg_bXm-dH-5" value="Purchase Parking Pass" style="text;align=left;verticalAlign=top;spacingLeft=4;spacingRight=4;overflow=hidden;rotatable=0;points=[[0,0.5],[1,0.5]];portConstraint=eastwest;" parent="UM03mqGRAgBNg_bXm-dH-0" vertex="1">
          <mxGeometry y="112" width="160" height="26" as="geometry" />
        </mxCell>
        <mxCell id="UM03mqGRAgBNg_bXm-dH-8" value="TamagotchiPackage" style="shape=folder;fontStyle=1;tabWidth=140;tabHeight=24;tabPosition=left;html=1;boundedLbl=1;labelInHeader=1;container=1;collapsible=0;recursiveResize=0;fillColor=#ffe6cc;strokeColor=#d79b00;" parent="WIyWlLk6GJQsqaUBKTNV-1" vertex="1">
          <mxGeometry x="580" y="370" width="620" height="710" as="geometry" />
        </mxCell>
        <mxCell id="UM03mqGRAgBNg_bXm-dH-32" value="tamagotchi" style="swimlane;fontStyle=0;align=center;verticalAlign=top;childLayout=stackLayout;horizontal=1;startSize=26;horizontalStack=0;resizeParent=1;resizeLast=0;collapsible=1;marginBottom=0;rounded=0;shadow=0;strokeWidth=1;" parent="UM03mqGRAgBNg_bXm-dH-8" vertex="1">
          <mxGeometry x="20" y="70" width="160" height="398" as="geometry">
            <mxRectangle x="130" y="380" width="160" height="26" as="alternateBounds" />
          </mxGeometry>
        </mxCell>
        <mxCell id="UM03mqGRAgBNg_bXm-dH-39" value="# name" style="text;align=left;verticalAlign=top;spacingLeft=4;spacingRight=4;overflow=hidden;rotatable=0;points=[[0,0.5],[1,0.5]];portConstraint=eastwest;fillColor=default;" parent="UM03mqGRAgBNg_bXm-dH-32" vertex="1">
          <mxGeometry y="26" width="160" height="26" as="geometry" />
        </mxCell>
        <mxCell id="UM03mqGRAgBNg_bXm-dH-40" value="# breed" style="text;align=left;verticalAlign=top;spacingLeft=4;spacingRight=4;overflow=hidden;rotatable=0;points=[[0,0.5],[1,0.5]];portConstraint=eastwest;fillColor=default;" parent="UM03mqGRAgBNg_bXm-dH-32" vertex="1">
          <mxGeometry y="52" width="160" height="26" as="geometry" />
        </mxCell>
        <mxCell id="UM03mqGRAgBNg_bXm-dH-41" value="# favoriteFood" style="text;align=left;verticalAlign=top;spacingLeft=4;spacingRight=4;overflow=hidden;rotatable=0;points=[[0,0.5],[1,0.5]];portConstraint=eastwest;fillColor=default;" parent="UM03mqGRAgBNg_bXm-dH-32" vertex="1">
          <mxGeometry y="78" width="160" height="26" as="geometry" />
        </mxCell>
        <mxCell id="UM03mqGRAgBNg_bXm-dH-43" value="# health" style="text;align=left;verticalAlign=top;spacingLeft=4;spacingRight=4;overflow=hidden;rotatable=0;points=[[0,0.5],[1,0.5]];portConstraint=eastwest;fillColor=default;" parent="UM03mqGRAgBNg_bXm-dH-32" vertex="1">
          <mxGeometry y="104" width="160" height="26" as="geometry" />
        </mxCell>
        <mxCell id="UM03mqGRAgBNg_bXm-dH-42" value="# isAlive" style="text;align=left;verticalAlign=top;spacingLeft=4;spacingRight=4;overflow=hidden;rotatable=0;points=[[0,0.5],[1,0.5]];portConstraint=eastwest;fillColor=default;" parent="UM03mqGRAgBNg_bXm-dH-32" vertex="1">
          <mxGeometry y="130" width="160" height="26" as="geometry" />
        </mxCell>
        <mxCell id="UM03mqGRAgBNg_bXm-dH-33" value="# energy" style="text;align=left;verticalAlign=top;spacingLeft=4;spacingRight=4;overflow=hidden;rotatable=0;points=[[0,0.5],[1,0.5]];portConstraint=eastwest;fillColor=default;" parent="UM03mqGRAgBNg_bXm-dH-32" vertex="1">
          <mxGeometry y="156" width="160" height="26" as="geometry" />
        </mxCell>
        <mxCell id="UM03mqGRAgBNg_bXm-dH-44" value="# hunger" style="text;align=left;verticalAlign=top;spacingLeft=4;spacingRight=4;overflow=hidden;rotatable=0;points=[[0,0.5],[1,0.5]];portConstraint=eastwest;fillColor=default;" parent="UM03mqGRAgBNg_bXm-dH-32" vertex="1">
          <mxGeometry y="182" width="160" height="26" as="geometry" />
        </mxCell>
        <mxCell id="UM03mqGRAgBNg_bXm-dH-45" value="# cleanliness" style="text;align=left;verticalAlign=top;spacingLeft=4;spacingRight=4;overflow=hidden;rotatable=0;points=[[0,0.5],[1,0.5]];portConstraint=eastwest;fillColor=default;" parent="UM03mqGRAgBNg_bXm-dH-32" vertex="1">
          <mxGeometry y="208" width="160" height="26" as="geometry" />
        </mxCell>
        <mxCell id="UM03mqGRAgBNg_bXm-dH-46" value="# hapiness" style="text;align=left;verticalAlign=top;spacingLeft=4;spacingRight=4;overflow=hidden;rotatable=0;points=[[0,0.5],[1,0.5]];portConstraint=eastwest;fillColor=default;" parent="UM03mqGRAgBNg_bXm-dH-32" vertex="1">
          <mxGeometry y="234" width="160" height="26" as="geometry" />
        </mxCell>
        <mxCell id="UM03mqGRAgBNg_bXm-dH-35" value="" style="line;html=1;strokeWidth=1;align=left;verticalAlign=middle;spacingTop=-1;spacingLeft=3;spacingRight=3;rotatable=0;labelPosition=right;points=[];portConstraint=eastwest;" parent="UM03mqGRAgBNg_bXm-dH-32" vertex="1">
          <mxGeometry y="260" width="160" height="8" as="geometry" />
        </mxCell>
        <mxCell id="UM03mqGRAgBNg_bXm-dH-36" value="+ tamagotchi()" style="text;align=left;verticalAlign=top;spacingLeft=4;spacingRight=4;overflow=hidden;rotatable=0;points=[[0,0.5],[1,0.5]];portConstraint=eastwest;fontStyle=0;fillColor=default;" parent="UM03mqGRAgBNg_bXm-dH-32" vertex="1">
          <mxGeometry y="268" width="160" height="26" as="geometry" />
        </mxCell>
        <mxCell id="UM03mqGRAgBNg_bXm-dH-47" value="+ get*" style="text;align=left;verticalAlign=top;spacingLeft=4;spacingRight=4;overflow=hidden;rotatable=0;points=[[0,0.5],[1,0.5]];portConstraint=eastwest;fontStyle=0;fillColor=default;" parent="UM03mqGRAgBNg_bXm-dH-32" vertex="1">
          <mxGeometry y="294" width="160" height="26" as="geometry" />
        </mxCell>
        <mxCell id="UM03mqGRAgBNg_bXm-dH-49" value="+ set*" style="text;align=left;verticalAlign=top;spacingLeft=4;spacingRight=4;overflow=hidden;rotatable=0;points=[[0,0.5],[1,0.5]];portConstraint=eastwest;fontStyle=0;fillColor=default;" parent="UM03mqGRAgBNg_bXm-dH-32" vertex="1">
          <mxGeometry y="320" width="160" height="26" as="geometry" />
        </mxCell>
        <mxCell id="UM03mqGRAgBNg_bXm-dH-50" value="+ hurt()" style="text;align=left;verticalAlign=top;spacingLeft=4;spacingRight=4;overflow=hidden;rotatable=0;points=[[0,0.5],[1,0.5]];portConstraint=eastwest;fontStyle=0;fillColor=default;" parent="UM03mqGRAgBNg_bXm-dH-32" vertex="1">
          <mxGeometry y="346" width="160" height="26" as="geometry" />
        </mxCell>
        <mxCell id="UM03mqGRAgBNg_bXm-dH-48" value="+ euthanize()" style="text;align=left;verticalAlign=top;spacingLeft=4;spacingRight=4;overflow=hidden;rotatable=0;points=[[0,0.5],[1,0.5]];portConstraint=eastwest;fontStyle=0;fillColor=default;" parent="UM03mqGRAgBNg_bXm-dH-32" vertex="1">
          <mxGeometry y="372" width="160" height="26" as="geometry" />
        </mxCell>
        <mxCell id="UM03mqGRAgBNg_bXm-dH-51" value="" style="endArrow=block;endSize=10;endFill=0;shadow=0;strokeWidth=1;rounded=0;edgeStyle=elbowEdgeStyle;elbow=vertical;entryX=0.75;entryY=0;entryDx=0;entryDy=0;exitX=0.25;exitY=0;exitDx=0;exitDy=0;" parent="UM03mqGRAgBNg_bXm-dH-8" source="UM03mqGRAgBNg_bXm-dH-18" target="UM03mqGRAgBNg_bXm-dH-32" edge="1">
          <mxGeometry width="160" relative="1" as="geometry">
            <mxPoint x="540" y="282" as="sourcePoint" />
            <mxPoint x="540" y="160" as="targetPoint" />
            <Array as="points">
              <mxPoint x="380" y="50" />
            </Array>
          </mxGeometry>
        </mxCell>
        <mxCell id="UM03mqGRAgBNg_bXm-dH-16" value="Species" style="shape=folder;fontStyle=1;tabWidth=140;tabHeight=24;tabPosition=left;html=1;boundedLbl=1;labelInHeader=1;container=1;collapsible=0;recursiveResize=0;fillColor=#d5e8d4;strokeColor=#82b366;" parent="UM03mqGRAgBNg_bXm-dH-8" vertex="1">
          <mxGeometry x="250" y="40" width="350" height="640" as="geometry" />
        </mxCell>
        <mxCell id="UM03mqGRAgBNg_bXm-dH-18" value="sheep" style="swimlane;fontStyle=2;align=center;verticalAlign=top;childLayout=stackLayout;horizontal=1;startSize=26;horizontalStack=0;resizeParent=1;resizeLast=0;collapsible=1;marginBottom=0;rounded=0;shadow=0;strokeWidth=1;" parent="UM03mqGRAgBNg_bXm-dH-16" vertex="1">
          <mxGeometry x="80" y="50" width="200" height="86" as="geometry">
            <mxRectangle x="230" y="140" width="160" height="26" as="alternateBounds" />
          </mxGeometry>
        </mxCell>
        <mxCell id="UM03mqGRAgBNg_bXm-dH-19" value="# String : Breed = &quot;Sheep&quot;" style="text;align=left;verticalAlign=top;spacingLeft=4;spacingRight=4;overflow=hidden;rotatable=0;points=[[0,0.5],[1,0.5]];portConstraint=eastwest;fillColor=default;" parent="UM03mqGRAgBNg_bXm-dH-18" vertex="1">
          <mxGeometry y="26" width="200" height="26" as="geometry" />
        </mxCell>
        <mxCell id="UM03mqGRAgBNg_bXm-dH-22" value="" style="line;html=1;strokeWidth=1;align=left;verticalAlign=middle;spacingTop=-1;spacingLeft=3;spacingRight=3;rotatable=0;labelPosition=right;points=[];portConstraint=eastwest;" parent="UM03mqGRAgBNg_bXm-dH-18" vertex="1">
          <mxGeometry y="52" width="200" height="8" as="geometry" />
        </mxCell>
        <mxCell id="UM03mqGRAgBNg_bXm-dH-23" value="# String : favoriteFood = &quot;grass&quot;&#xa;" style="text;align=left;verticalAlign=top;spacingLeft=4;spacingRight=4;overflow=hidden;rotatable=0;points=[[0,0.5],[1,0.5]];portConstraint=eastwest;fillColor=default;" parent="UM03mqGRAgBNg_bXm-dH-18" vertex="1">
          <mxGeometry y="60" width="200" height="26" as="geometry" />
        </mxCell>
        <mxCell id="YmqU-FiPZMgHzT-d5__r-0" value="dog" style="swimlane;fontStyle=2;align=center;verticalAlign=top;childLayout=stackLayout;horizontal=1;startSize=26;horizontalStack=0;resizeParent=1;resizeLast=0;collapsible=1;marginBottom=0;rounded=0;shadow=0;strokeWidth=1;" vertex="1" parent="UM03mqGRAgBNg_bXm-dH-16">
          <mxGeometry x="80" y="190" width="200" height="86" as="geometry">
            <mxRectangle x="230" y="140" width="160" height="26" as="alternateBounds" />
          </mxGeometry>
        </mxCell>
        <mxCell id="YmqU-FiPZMgHzT-d5__r-1" value="# String : Breed = &quot;Dog&quot;" style="text;align=left;verticalAlign=top;spacingLeft=4;spacingRight=4;overflow=hidden;rotatable=0;points=[[0,0.5],[1,0.5]];portConstraint=eastwest;fillColor=default;" vertex="1" parent="YmqU-FiPZMgHzT-d5__r-0">
          <mxGeometry y="26" width="200" height="26" as="geometry" />
        </mxCell>
        <mxCell id="YmqU-FiPZMgHzT-d5__r-2" value="" style="line;html=1;strokeWidth=1;align=left;verticalAlign=middle;spacingTop=-1;spacingLeft=3;spacingRight=3;rotatable=0;labelPosition=right;points=[];portConstraint=eastwest;" vertex="1" parent="YmqU-FiPZMgHzT-d5__r-0">
          <mxGeometry y="52" width="200" height="8" as="geometry" />
        </mxCell>
        <mxCell id="YmqU-FiPZMgHzT-d5__r-3" value="# String : favoriteFood = &quot;bones&quot;&#xa;" style="text;align=left;verticalAlign=top;spacingLeft=4;spacingRight=4;overflow=hidden;rotatable=0;points=[[0,0.5],[1,0.5]];portConstraint=eastwest;fillColor=default;" vertex="1" parent="YmqU-FiPZMgHzT-d5__r-0">
          <mxGeometry y="60" width="200" height="26" as="geometry" />
        </mxCell>
        <mxCell id="YmqU-FiPZMgHzT-d5__r-4" value="cat&#xa;&#xa;" style="swimlane;fontStyle=2;align=center;verticalAlign=top;childLayout=stackLayout;horizontal=1;startSize=26;horizontalStack=0;resizeParent=1;resizeLast=0;collapsible=1;marginBottom=0;rounded=0;shadow=0;strokeWidth=1;" vertex="1" parent="UM03mqGRAgBNg_bXm-dH-16">
          <mxGeometry x="90" y="340" width="200" height="86" as="geometry">
            <mxRectangle x="230" y="140" width="160" height="26" as="alternateBounds" />
          </mxGeometry>
        </mxCell>
        <mxCell id="YmqU-FiPZMgHzT-d5__r-5" value="# String : Breed =  &quot;Cat&quot;" style="text;align=left;verticalAlign=top;spacingLeft=4;spacingRight=4;overflow=hidden;rotatable=0;points=[[0,0.5],[1,0.5]];portConstraint=eastwest;fillColor=default;" vertex="1" parent="YmqU-FiPZMgHzT-d5__r-4">
          <mxGeometry y="26" width="200" height="26" as="geometry" />
        </mxCell>
        <mxCell id="YmqU-FiPZMgHzT-d5__r-6" value="" style="line;html=1;strokeWidth=1;align=left;verticalAlign=middle;spacingTop=-1;spacingLeft=3;spacingRight=3;rotatable=0;labelPosition=right;points=[];portConstraint=eastwest;" vertex="1" parent="YmqU-FiPZMgHzT-d5__r-4">
          <mxGeometry y="52" width="200" height="8" as="geometry" />
        </mxCell>
        <mxCell id="YmqU-FiPZMgHzT-d5__r-7" value="# String : favoriteFood = &quot;milk&quot;&#xa;" style="text;align=left;verticalAlign=top;spacingLeft=4;spacingRight=4;overflow=hidden;rotatable=0;points=[[0,0.5],[1,0.5]];portConstraint=eastwest;fillColor=default;" vertex="1" parent="YmqU-FiPZMgHzT-d5__r-4">
          <mxGeometry y="60" width="200" height="26" as="geometry" />
        </mxCell>
        <mxCell id="YmqU-FiPZMgHzT-d5__r-8" value="robot" style="swimlane;fontStyle=2;align=center;verticalAlign=top;childLayout=stackLayout;horizontal=1;startSize=26;horizontalStack=0;resizeParent=1;resizeLast=0;collapsible=1;marginBottom=0;rounded=0;shadow=0;strokeWidth=1;" vertex="1" parent="UM03mqGRAgBNg_bXm-dH-16">
          <mxGeometry x="90" y="520" width="200" height="86" as="geometry">
            <mxRectangle x="230" y="140" width="160" height="26" as="alternateBounds" />
          </mxGeometry>
        </mxCell>
        <mxCell id="YmqU-FiPZMgHzT-d5__r-9" value="# String : Breed = &quot;Robot&quot;" style="text;align=left;verticalAlign=top;spacingLeft=4;spacingRight=4;overflow=hidden;rotatable=0;points=[[0,0.5],[1,0.5]];portConstraint=eastwest;fillColor=default;" vertex="1" parent="YmqU-FiPZMgHzT-d5__r-8">
          <mxGeometry y="26" width="200" height="26" as="geometry" />
        </mxCell>
        <mxCell id="YmqU-FiPZMgHzT-d5__r-10" value="" style="line;html=1;strokeWidth=1;align=left;verticalAlign=middle;spacingTop=-1;spacingLeft=3;spacingRight=3;rotatable=0;labelPosition=right;points=[];portConstraint=eastwest;" vertex="1" parent="YmqU-FiPZMgHzT-d5__r-8">
          <mxGeometry y="52" width="200" height="8" as="geometry" />
        </mxCell>
        <mxCell id="YmqU-FiPZMgHzT-d5__r-11" value="# String : favoriteFood = &quot;bolt&quot;&#xa;" style="text;align=left;verticalAlign=top;spacingLeft=4;spacingRight=4;overflow=hidden;rotatable=0;points=[[0,0.5],[1,0.5]];portConstraint=eastwest;fillColor=default;" vertex="1" parent="YmqU-FiPZMgHzT-d5__r-8">
          <mxGeometry y="60" width="200" height="26" as="geometry" />
        </mxCell>
        <mxCell id="UM03mqGRAgBNg_bXm-dH-24" value="UIPackage" style="shape=folder;fontStyle=1;tabWidth=140;tabHeight=24;tabPosition=left;html=1;boundedLbl=1;labelInHeader=1;container=1;collapsible=0;recursiveResize=0;fillColor=#dae8fc;strokeColor=#6c8ebf;" parent="WIyWlLk6GJQsqaUBKTNV-1" vertex="1">
          <mxGeometry x="10" y="570" width="480" height="280" as="geometry" />
        </mxCell>
        <mxCell id="UM03mqGRAgBNg_bXm-dH-52" value="gameUI" style="swimlane;fontStyle=0;align=center;verticalAlign=top;childLayout=stackLayout;horizontal=1;startSize=26;horizontalStack=0;resizeParent=1;resizeLast=0;collapsible=1;marginBottom=0;rounded=0;shadow=0;strokeWidth=1;" parent="UM03mqGRAgBNg_bXm-dH-24" vertex="1" collapsed="1">
          <mxGeometry x="140" y="49" width="170" height="26" as="geometry">
            <mxRectangle x="140" y="49" width="160" height="70" as="alternateBounds" />
          </mxGeometry>
        </mxCell>
        <mxCell id="UM03mqGRAgBNg_bXm-dH-53" value="." style="text;align=left;verticalAlign=top;spacingLeft=4;spacingRight=4;overflow=hidden;rotatable=0;points=[[0,0.5],[1,0.5]];portConstraint=eastwest;fillColor=default;" parent="UM03mqGRAgBNg_bXm-dH-52" vertex="1">
          <mxGeometry y="26" width="170" height="26" as="geometry" />
        </mxCell>
        <mxCell id="UM03mqGRAgBNg_bXm-dH-54" value="" style="line;html=1;strokeWidth=1;align=left;verticalAlign=middle;spacingTop=-1;spacingLeft=3;spacingRight=3;rotatable=0;labelPosition=right;points=[];portConstraint=eastwest;" parent="UM03mqGRAgBNg_bXm-dH-52" vertex="1">
          <mxGeometry y="52" width="170" height="8" as="geometry" />
        </mxCell>
        <mxCell id="UM03mqGRAgBNg_bXm-dH-55" value="TamagotchiView" style="swimlane;fontStyle=0;align=center;verticalAlign=top;childLayout=stackLayout;horizontal=1;startSize=26;horizontalStack=0;resizeParent=1;resizeLast=0;collapsible=1;marginBottom=0;rounded=0;shadow=0;strokeWidth=1;" parent="UM03mqGRAgBNg_bXm-dH-24" vertex="1" collapsed="1">
          <mxGeometry x="250" y="120" width="170" height="26" as="geometry">
            <mxRectangle x="140" y="49" width="160" height="70" as="alternateBounds" />
          </mxGeometry>
        </mxCell>
        <mxCell id="UM03mqGRAgBNg_bXm-dH-56" value="." style="text;align=left;verticalAlign=top;spacingLeft=4;spacingRight=4;overflow=hidden;rotatable=0;points=[[0,0.5],[1,0.5]];portConstraint=eastwest;fillColor=default;" parent="UM03mqGRAgBNg_bXm-dH-55" vertex="1">
          <mxGeometry y="26" width="170" height="26" as="geometry" />
        </mxCell>
        <mxCell id="UM03mqGRAgBNg_bXm-dH-57" value="" style="line;html=1;strokeWidth=1;align=left;verticalAlign=middle;spacingTop=-1;spacingLeft=3;spacingRight=3;rotatable=0;labelPosition=right;points=[];portConstraint=eastwest;" parent="UM03mqGRAgBNg_bXm-dH-55" vertex="1">
          <mxGeometry y="52" width="170" height="8" as="geometry" />
        </mxCell>
        <mxCell id="UM03mqGRAgBNg_bXm-dH-58" value="creationView" style="swimlane;fontStyle=0;align=center;verticalAlign=top;childLayout=stackLayout;horizontal=1;startSize=26;horizontalStack=0;resizeParent=1;resizeLast=0;collapsible=1;marginBottom=0;rounded=0;shadow=0;strokeWidth=1;" parent="UM03mqGRAgBNg_bXm-dH-24" vertex="1" collapsed="1">
          <mxGeometry x="50" y="120" width="170" height="26" as="geometry">
            <mxRectangle x="50" y="120" width="160" height="70" as="alternateBounds" />
          </mxGeometry>
        </mxCell>
        <mxCell id="UM03mqGRAgBNg_bXm-dH-59" value="." style="text;align=left;verticalAlign=top;spacingLeft=4;spacingRight=4;overflow=hidden;rotatable=0;points=[[0,0.5],[1,0.5]];portConstraint=eastwest;fillColor=default;" parent="UM03mqGRAgBNg_bXm-dH-58" vertex="1">
          <mxGeometry y="26" width="170" height="26" as="geometry" />
        </mxCell>
        <mxCell id="UM03mqGRAgBNg_bXm-dH-60" value="" style="line;html=1;strokeWidth=1;align=left;verticalAlign=middle;spacingTop=-1;spacingLeft=3;spacingRight=3;rotatable=0;labelPosition=right;points=[];portConstraint=eastwest;" parent="UM03mqGRAgBNg_bXm-dH-58" vertex="1">
          <mxGeometry y="52" width="170" height="8" as="geometry" />
        </mxCell>
        <mxCell id="UM03mqGRAgBNg_bXm-dH-64" value="" style="endArrow=classic;html=1;rounded=0;edgeStyle=orthogonalEdgeStyle;entryX=0.25;entryY=1;entryDx=0;entryDy=0;exitX=0.5;exitY=0;exitDx=0;exitDy=0;" parent="UM03mqGRAgBNg_bXm-dH-24" source="UM03mqGRAgBNg_bXm-dH-58" target="UM03mqGRAgBNg_bXm-dH-52" edge="1">
          <mxGeometry relative="1" as="geometry">
            <mxPoint x="-120" y="70" as="sourcePoint" />
            <mxPoint x="-20" y="70" as="targetPoint" />
          </mxGeometry>
        </mxCell>
        <mxCell id="UM03mqGRAgBNg_bXm-dH-65" value="Label" style="edgeLabel;resizable=0;html=1;align=center;verticalAlign=middle;fillColor=default;fontColor=none;noLabel=1;" parent="UM03mqGRAgBNg_bXm-dH-64" connectable="0" vertex="1">
          <mxGeometry relative="1" as="geometry">
            <mxPoint y="47" as="offset" />
          </mxGeometry>
        </mxCell>
        <mxCell id="UM03mqGRAgBNg_bXm-dH-66" value="" style="endArrow=classic;html=1;rounded=0;edgeStyle=orthogonalEdgeStyle;entryX=0.75;entryY=1;entryDx=0;entryDy=0;exitX=0.5;exitY=0;exitDx=0;exitDy=0;" parent="UM03mqGRAgBNg_bXm-dH-24" source="UM03mqGRAgBNg_bXm-dH-55" target="UM03mqGRAgBNg_bXm-dH-52" edge="1">
          <mxGeometry relative="1" as="geometry">
            <mxPoint x="145" y="130" as="sourcePoint" />
            <mxPoint x="192.5" y="85" as="targetPoint" />
          </mxGeometry>
        </mxCell>
        <mxCell id="UM03mqGRAgBNg_bXm-dH-67" value="Label" style="edgeLabel;resizable=0;html=1;align=center;verticalAlign=middle;fillColor=default;fontColor=none;noLabel=1;" parent="UM03mqGRAgBNg_bXm-dH-66" connectable="0" vertex="1">
          <mxGeometry relative="1" as="geometry">
            <mxPoint y="47" as="offset" />
          </mxGeometry>
        </mxCell>
        <mxCell id="UM03mqGRAgBNg_bXm-dH-68" value="creationForm" style="swimlane;fontStyle=0;align=center;verticalAlign=top;childLayout=stackLayout;horizontal=1;startSize=26;horizontalStack=0;resizeParent=1;resizeLast=0;collapsible=1;marginBottom=0;rounded=0;shadow=0;strokeWidth=1;" parent="UM03mqGRAgBNg_bXm-dH-24" vertex="1" collapsed="1">
          <mxGeometry x="50" y="190" width="170" height="26" as="geometry">
            <mxRectangle x="50" y="120" width="160" height="70" as="alternateBounds" />
          </mxGeometry>
        </mxCell>
        <mxCell id="UM03mqGRAgBNg_bXm-dH-69" value="." style="text;align=left;verticalAlign=top;spacingLeft=4;spacingRight=4;overflow=hidden;rotatable=0;points=[[0,0.5],[1,0.5]];portConstraint=eastwest;fillColor=default;" parent="UM03mqGRAgBNg_bXm-dH-68" vertex="1">
          <mxGeometry y="26" width="170" height="26" as="geometry" />
        </mxCell>
        <mxCell id="UM03mqGRAgBNg_bXm-dH-70" value="" style="line;html=1;strokeWidth=1;align=left;verticalAlign=middle;spacingTop=-1;spacingLeft=3;spacingRight=3;rotatable=0;labelPosition=right;points=[];portConstraint=eastwest;" parent="UM03mqGRAgBNg_bXm-dH-68" vertex="1">
          <mxGeometry y="52" width="170" height="8" as="geometry" />
        </mxCell>
        <mxCell id="UM03mqGRAgBNg_bXm-dH-71" value="" style="endArrow=classic;html=1;rounded=0;edgeStyle=orthogonalEdgeStyle;entryX=0.5;entryY=1;entryDx=0;entryDy=0;exitX=0.5;exitY=0;exitDx=0;exitDy=0;" parent="UM03mqGRAgBNg_bXm-dH-24" source="UM03mqGRAgBNg_bXm-dH-68" target="UM03mqGRAgBNg_bXm-dH-58" edge="1">
          <mxGeometry relative="1" as="geometry">
            <mxPoint x="145" y="130" as="sourcePoint" />
            <mxPoint x="192.5" y="85" as="targetPoint" />
          </mxGeometry>
        </mxCell>
        <mxCell id="UM03mqGRAgBNg_bXm-dH-72" value="Label" style="edgeLabel;resizable=0;html=1;align=center;verticalAlign=middle;fillColor=default;fontColor=none;noLabel=1;" parent="UM03mqGRAgBNg_bXm-dH-71" connectable="0" vertex="1">
          <mxGeometry relative="1" as="geometry">
            <mxPoint y="47" as="offset" />
          </mxGeometry>
        </mxCell>
        <mxCell id="UM03mqGRAgBNg_bXm-dH-73" value="" style="endArrow=none;dashed=1;html=1;rounded=0;fontColor=none;edgeStyle=orthogonalEdgeStyle;entryX=0;entryY=0.5;entryDx=0;entryDy=0;exitX=1;exitY=0.5;exitDx=0;exitDy=0;" parent="WIyWlLk6GJQsqaUBKTNV-1" source="UM03mqGRAgBNg_bXm-dH-68" target="UM03mqGRAgBNg_bXm-dH-36" edge="1">
          <mxGeometry width="50" height="50" relative="1" as="geometry">
            <mxPoint x="-130" y="650" as="sourcePoint" />
            <mxPoint x="-80" y="600" as="targetPoint" />
            <Array as="points">
              <mxPoint x="540" y="773" />
              <mxPoint x="540" y="721" />
            </Array>
          </mxGeometry>
        </mxCell>
        <mxCell id="UM03mqGRAgBNg_bXm-dH-74" value="systemPackage" style="shape=folder;fontStyle=1;tabWidth=140;tabHeight=24;tabPosition=left;html=1;boundedLbl=1;labelInHeader=1;container=1;collapsible=0;recursiveResize=0;fillColor=#fff2cc;strokeColor=#d6b656;" parent="WIyWlLk6GJQsqaUBKTNV-1" vertex="1">
          <mxGeometry x="10" y="230" width="480" height="280" as="geometry" />
        </mxCell>
        <mxCell id="UM03mqGRAgBNg_bXm-dH-75" value="system" style="swimlane;fontStyle=0;align=center;verticalAlign=top;childLayout=stackLayout;horizontal=1;startSize=26;horizontalStack=0;resizeParent=1;resizeLast=0;collapsible=1;marginBottom=0;rounded=0;shadow=0;strokeWidth=1;" parent="UM03mqGRAgBNg_bXm-dH-74" vertex="1" collapsed="1">
          <mxGeometry x="155" y="41" width="170" height="26" as="geometry">
            <mxRectangle x="140" y="49" width="160" height="70" as="alternateBounds" />
          </mxGeometry>
        </mxCell>
        <mxCell id="UM03mqGRAgBNg_bXm-dH-76" value="." style="text;align=left;verticalAlign=top;spacingLeft=4;spacingRight=4;overflow=hidden;rotatable=0;points=[[0,0.5],[1,0.5]];portConstraint=eastwest;fillColor=default;" parent="UM03mqGRAgBNg_bXm-dH-75" vertex="1">
          <mxGeometry y="26" width="170" height="26" as="geometry" />
        </mxCell>
        <mxCell id="UM03mqGRAgBNg_bXm-dH-77" value="" style="line;html=1;strokeWidth=1;align=left;verticalAlign=middle;spacingTop=-1;spacingLeft=3;spacingRight=3;rotatable=0;labelPosition=right;points=[];portConstraint=eastwest;" parent="UM03mqGRAgBNg_bXm-dH-75" vertex="1">
          <mxGeometry y="52" width="170" height="8" as="geometry" />
        </mxCell>
        <mxCell id="UM03mqGRAgBNg_bXm-dH-78" value="gameSaver" style="swimlane;fontStyle=0;align=center;verticalAlign=top;childLayout=stackLayout;horizontal=1;startSize=26;horizontalStack=0;resizeParent=1;resizeLast=0;collapsible=1;marginBottom=0;rounded=0;shadow=0;strokeWidth=1;" parent="UM03mqGRAgBNg_bXm-dH-74" vertex="1" collapsed="1">
          <mxGeometry x="250" y="127" width="170" height="26" as="geometry">
            <mxRectangle x="140" y="49" width="160" height="70" as="alternateBounds" />
          </mxGeometry>
        </mxCell>
        <mxCell id="UM03mqGRAgBNg_bXm-dH-79" value="." style="text;align=left;verticalAlign=top;spacingLeft=4;spacingRight=4;overflow=hidden;rotatable=0;points=[[0,0.5],[1,0.5]];portConstraint=eastwest;fillColor=default;" parent="UM03mqGRAgBNg_bXm-dH-78" vertex="1">
          <mxGeometry y="26" width="170" height="26" as="geometry" />
        </mxCell>
        <mxCell id="UM03mqGRAgBNg_bXm-dH-80" value="" style="line;html=1;strokeWidth=1;align=left;verticalAlign=middle;spacingTop=-1;spacingLeft=3;spacingRight=3;rotatable=0;labelPosition=right;points=[];portConstraint=eastwest;" parent="UM03mqGRAgBNg_bXm-dH-78" vertex="1">
          <mxGeometry y="52" width="170" height="8" as="geometry" />
        </mxCell>
        <mxCell id="UM03mqGRAgBNg_bXm-dH-81" value="gameLoader" style="swimlane;fontStyle=0;align=center;verticalAlign=top;childLayout=stackLayout;horizontal=1;startSize=26;horizontalStack=0;resizeParent=1;resizeLast=0;collapsible=1;marginBottom=0;rounded=0;shadow=0;strokeWidth=1;" parent="UM03mqGRAgBNg_bXm-dH-74" vertex="1" collapsed="1">
          <mxGeometry x="50" y="120" width="170" height="26" as="geometry">
            <mxRectangle x="50" y="120" width="160" height="70" as="alternateBounds" />
          </mxGeometry>
        </mxCell>
        <mxCell id="UM03mqGRAgBNg_bXm-dH-82" value="." style="text;align=left;verticalAlign=top;spacingLeft=4;spacingRight=4;overflow=hidden;rotatable=0;points=[[0,0.5],[1,0.5]];portConstraint=eastwest;fillColor=default;" parent="UM03mqGRAgBNg_bXm-dH-81" vertex="1">
          <mxGeometry y="26" width="170" height="26" as="geometry" />
        </mxCell>
        <mxCell id="UM03mqGRAgBNg_bXm-dH-83" value="" style="line;html=1;strokeWidth=1;align=left;verticalAlign=middle;spacingTop=-1;spacingLeft=3;spacingRight=3;rotatable=0;labelPosition=right;points=[];portConstraint=eastwest;" parent="UM03mqGRAgBNg_bXm-dH-81" vertex="1">
          <mxGeometry y="52" width="170" height="8" as="geometry" />
        </mxCell>
        <mxCell id="UM03mqGRAgBNg_bXm-dH-84" value="" style="endArrow=classic;html=1;rounded=0;edgeStyle=orthogonalEdgeStyle;entryX=0.25;entryY=1;entryDx=0;entryDy=0;exitX=0.5;exitY=0;exitDx=0;exitDy=0;" parent="UM03mqGRAgBNg_bXm-dH-74" source="UM03mqGRAgBNg_bXm-dH-81" target="UM03mqGRAgBNg_bXm-dH-75" edge="1">
          <mxGeometry relative="1" as="geometry">
            <mxPoint x="-120" y="70" as="sourcePoint" />
            <mxPoint x="-20" y="70" as="targetPoint" />
          </mxGeometry>
        </mxCell>
        <mxCell id="UM03mqGRAgBNg_bXm-dH-85" value="Label" style="edgeLabel;resizable=0;html=1;align=center;verticalAlign=middle;fillColor=default;fontColor=none;noLabel=1;" parent="UM03mqGRAgBNg_bXm-dH-84" connectable="0" vertex="1">
          <mxGeometry relative="1" as="geometry">
            <mxPoint y="47" as="offset" />
          </mxGeometry>
        </mxCell>
        <mxCell id="UM03mqGRAgBNg_bXm-dH-86" value="" style="endArrow=classic;html=1;rounded=0;edgeStyle=orthogonalEdgeStyle;entryX=0.75;entryY=1;entryDx=0;entryDy=0;exitX=0.5;exitY=0;exitDx=0;exitDy=0;" parent="UM03mqGRAgBNg_bXm-dH-74" source="UM03mqGRAgBNg_bXm-dH-78" target="UM03mqGRAgBNg_bXm-dH-75" edge="1">
          <mxGeometry relative="1" as="geometry">
            <mxPoint x="145" y="130" as="sourcePoint" />
            <mxPoint x="192.5" y="85" as="targetPoint" />
          </mxGeometry>
        </mxCell>
        <mxCell id="UM03mqGRAgBNg_bXm-dH-87" value="Label" style="edgeLabel;resizable=0;html=1;align=center;verticalAlign=middle;fillColor=default;fontColor=none;noLabel=1;" parent="UM03mqGRAgBNg_bXm-dH-86" connectable="0" vertex="1">
          <mxGeometry relative="1" as="geometry">
            <mxPoint y="47" as="offset" />
          </mxGeometry>
        </mxCell>
        <mxCell id="UM03mqGRAgBNg_bXm-dH-88" value="saveData" style="swimlane;fontStyle=0;align=center;verticalAlign=top;childLayout=stackLayout;horizontal=1;startSize=26;horizontalStack=0;resizeParent=1;resizeLast=0;collapsible=1;marginBottom=0;rounded=0;shadow=0;strokeWidth=1;" parent="UM03mqGRAgBNg_bXm-dH-74" vertex="1" collapsed="1">
          <mxGeometry x="155" y="210" width="170" height="26" as="geometry">
            <mxRectangle x="50" y="120" width="160" height="70" as="alternateBounds" />
          </mxGeometry>
        </mxCell>
        <mxCell id="UM03mqGRAgBNg_bXm-dH-89" value="." style="text;align=left;verticalAlign=top;spacingLeft=4;spacingRight=4;overflow=hidden;rotatable=0;points=[[0,0.5],[1,0.5]];portConstraint=eastwest;fillColor=default;" parent="UM03mqGRAgBNg_bXm-dH-88" vertex="1">
          <mxGeometry y="26" width="170" height="26" as="geometry" />
        </mxCell>
        <mxCell id="UM03mqGRAgBNg_bXm-dH-90" value="" style="line;html=1;strokeWidth=1;align=left;verticalAlign=middle;spacingTop=-1;spacingLeft=3;spacingRight=3;rotatable=0;labelPosition=right;points=[];portConstraint=eastwest;" parent="UM03mqGRAgBNg_bXm-dH-88" vertex="1">
          <mxGeometry y="52" width="170" height="8" as="geometry" />
        </mxCell>
        <mxCell id="UM03mqGRAgBNg_bXm-dH-91" value="" style="endArrow=classic;html=1;rounded=0;edgeStyle=orthogonalEdgeStyle;entryX=0.5;entryY=1;entryDx=0;entryDy=0;exitX=0.5;exitY=0;exitDx=0;exitDy=0;" parent="UM03mqGRAgBNg_bXm-dH-74" source="UM03mqGRAgBNg_bXm-dH-88" target="UM03mqGRAgBNg_bXm-dH-81" edge="1">
          <mxGeometry relative="1" as="geometry">
            <mxPoint x="145" y="130" as="sourcePoint" />
            <mxPoint x="192.5" y="85" as="targetPoint" />
          </mxGeometry>
        </mxCell>
        <mxCell id="UM03mqGRAgBNg_bXm-dH-92" value="Label" style="edgeLabel;resizable=0;html=1;align=center;verticalAlign=middle;fillColor=default;fontColor=none;noLabel=1;" parent="UM03mqGRAgBNg_bXm-dH-91" connectable="0" vertex="1">
          <mxGeometry relative="1" as="geometry">
            <mxPoint y="47" as="offset" />
          </mxGeometry>
        </mxCell>
        <mxCell id="UM03mqGRAgBNg_bXm-dH-97" value="" style="endArrow=classic;html=1;rounded=0;edgeStyle=orthogonalEdgeStyle;entryX=0.5;entryY=1;entryDx=0;entryDy=0;exitX=0.5;exitY=0;exitDx=0;exitDy=0;" parent="UM03mqGRAgBNg_bXm-dH-74" source="UM03mqGRAgBNg_bXm-dH-88" target="UM03mqGRAgBNg_bXm-dH-78" edge="1">
          <mxGeometry relative="1" as="geometry">
            <mxPoint x="655" y="24" as="sourcePoint" />
            <mxPoint x="550" y="-40" as="targetPoint" />
            <Array as="points">
              <mxPoint x="260" y="210" />
              <mxPoint x="260" y="182" />
              <mxPoint x="335" y="182" />
            </Array>
          </mxGeometry>
        </mxCell>
        <mxCell id="UM03mqGRAgBNg_bXm-dH-98" value="Label" style="edgeLabel;resizable=0;html=1;align=center;verticalAlign=middle;fillColor=default;fontColor=none;noLabel=1;" parent="UM03mqGRAgBNg_bXm-dH-97" connectable="0" vertex="1">
          <mxGeometry relative="1" as="geometry">
            <mxPoint y="47" as="offset" />
          </mxGeometry>
        </mxCell>
        <mxCell id="UM03mqGRAgBNg_bXm-dH-93" value="objectOutputStream" style="text;html=1;strokeColor=none;fillColor=none;align=center;verticalAlign=middle;whiteSpace=wrap;rounded=0;fontColor=none;" parent="WIyWlLk6GJQsqaUBKTNV-1" vertex="1">
          <mxGeometry x="-120" y="418" width="60" height="30" as="geometry" />
        </mxCell>
        <mxCell id="UM03mqGRAgBNg_bXm-dH-100" value="" style="edgeStyle=elbowEdgeStyle;elbow=horizontal;endArrow=classic;html=1;rounded=0;fontColor=none;exitX=0.5;exitY=0;exitDx=0;exitDy=0;entryX=0.5;entryY=1;entryDx=0;entryDy=0;" parent="WIyWlLk6GJQsqaUBKTNV-1" source="UM03mqGRAgBNg_bXm-dH-52" target="UM03mqGRAgBNg_bXm-dH-75" edge="1">
          <mxGeometry width="50" height="50" relative="1" as="geometry">
            <mxPoint x="-140" y="370" as="sourcePoint" />
            <mxPoint x="-90" y="320" as="targetPoint" />
          </mxGeometry>
        </mxCell>
      </root>
    </mxGraphModel>
  </diagram>
</mxfile>
